<?xml version="1.0" standalone="no"?><!DOCTYPE svg PUBLIC "-//W3C//DTD SVG 1.1//EN" "http://www.w3.org/Graphics/SVG/1.1/DTD/svg11.dtd"><svg t="1739368357531" class="icon" viewBox="0 0 1024 1024" version="1.1" xmlns="http://www.w3.org/2000/svg" p-id="1491" xmlns:xlink="http://www.w3.org/1999/xlink" width="200" height="200"><path d="M613.302044 512.438044c-0.113778 116.320711-93.957689 209.146311-211.382044 209.032534-115.029333-0.113778-208.611556-94.418489-208.497778-210.204445C193.536 395.013689 287.914667 301.283556 404.536889 301.511111c115.751822 0.227556 208.878933 94.333156 208.765155 210.921245z m-210.432 125.166934c69.927822 0.113778 126.492444-55.955911 126.606223-125.394489 0.079644-69.853867-55.881956-126.498133-125.354667-126.839467-69.1712-0.341333-126.759822 56.718222-126.839467 125.627734-0.034133 69.700267 56.263111 126.492444 125.587911 126.606222zM679.3216 721.732267V302.153956H762.311111v419.578311h-82.989511z" fill="#000000" p-id="1492"></path></svg>